<svg width="800" height="500" viewBox="0 0 800 500" fill="none" xmlns="http://www.w3.org/2000/svg">
<g clip-path="url(#clip0_5_2)">
<rect width="100" height="100" fill="#F2F2F2"/>
<rect width="100" height="100" transform="translate(0 100)" fill="#FAFAFA"/>
<rect width="100" height="100" transform="translate(0 200)" fill="#FAFAFA"/>
<rect width="100" height="100" transform="translate(0 300)" fill="#F2F2F2"/>
<rect width="100" height="100" transform="translate(0 400)" fill="#FAFAFA"/>
<rect width="100" height="100" transform="translate(100)" fill="#FAFAFA"/>
<rect width="100" height="100" transform="translate(100 100)" fill="#F2F2F2"/>
<rect width="100" height="100" transform="translate(100 200)" fill="#FAFAFA"/>
<rect width="100" height="100" transform="translate(100 300)" fill="#FAFAFA"/>
<rect width="100" height="100" transform="translate(100 400)" fill="#FAFAFA"/>
<rect width="100" height="100" transform="translate(200)" fill="#FAFAFA"/>
<rect width="100" height="100" transform="translate(200 100)" fill="#FAFAFA"/>
<rect width="100" height="100" transform="translate(200 200)" fill="#FAFAFA"/>
<rect width="100" height="100" transform="translate(200 300)" fill="#FAFAFA"/>
<rect width="100" height="100" transform="translate(200 400)" fill="#F2F2F2"/>
<rect width="100" height="100" transform="translate(300)" fill="#F2F2F2"/>
<rect width="100" height="100" transform="translate(300 100)" fill="#FAFAFA"/>
<rect width="100" height="100" transform="translate(300 200)" fill="#FAFAFA"/>
<rect width="100" height="100" transform="translate(300 300)" fill="#FAFAFA"/>
<rect width="100" height="100" transform="translate(300 400)" fill="#FAFAFA"/>
<rect width="100" height="100" transform="translate(400)" fill="#FAFAFA"/>
<rect width="100" height="100" transform="translate(400 100)" fill="#FAFAFA"/>
<rect width="100" height="100" transform="translate(400 200)" fill="#FAFAFA"/>
<rect width="100" height="100" transform="translate(400 300)" fill="#FAFAFA"/>
<rect width="100" height="100" transform="translate(400 400)" fill="#FAFAFA"/>
<rect width="100" height="100" transform="translate(500)" fill="#FAFAFA"/>
<rect width="100" height="100" transform="translate(500 100)" fill="#FAFAFA"/>
<rect width="100" height="100" transform="translate(500 200)" fill="#FAFAFA"/>
<rect width="100" height="100" transform="translate(500 300)" fill="#FAFAFA"/>
<rect width="100" height="100" transform="translate(500 400)" fill="#FAFAFA"/>
<rect width="100" height="100" transform="translate(600)" fill="#FAFAFA"/>
<rect width="100" height="100" transform="translate(600 100)" fill="#FAFAFA"/>
<rect width="100" height="100" transform="translate(600 200)" fill="#F2F2F2"/>
<rect width="100" height="100" transform="translate(600 300)" fill="#FAFAFA"/>
<rect width="100" height="100" transform="translate(600 400)" fill="#FAFAFA"/>
<rect width="100" height="100" transform="translate(700)" fill="#F2F2F2"/>
<rect width="100" height="100" transform="translate(700 100)" fill="#FAFAFA"/>
<rect width="100" height="100" transform="translate(700 200)" fill="#FAFAFA"/>
<rect width="100" height="100" transform="translate(700 300)" fill="#FAFAFA"/>
<rect width="100" height="100" transform="translate(700 400)" fill="#F2F2F2"/>
<line x1="200.5" y1="2.18557e-08" x2="200.5" y2="500" stroke="#F3F3F3"/>
<line x1="300.5" y1="2.18557e-08" x2="300.5" y2="500" stroke="#F3F3F3"/>
<line x1="400.5" y1="2.18557e-08" x2="400.5" y2="500" stroke="#F3F3F3"/>
<line x1="500.5" y1="2.18557e-08" x2="500.5" y2="500" stroke="#F3F3F3"/>
<line x1="600.5" y1="2.18557e-08" x2="600.5" y2="500" stroke="#F3F3F3"/>
<line x1="700.5" y1="2.18557e-08" x2="700.5" y2="500" stroke="#F3F3F3"/>
<line x1="100.5" y1="2.18557e-08" x2="100.5" y2="500" stroke="#F3F3F3"/>
<line x1="0.000668449" y1="99.5" x2="800.001" y2="100.57" stroke="#F3F3F3"/>
<line x1="0.000668449" y1="199.5" x2="800.001" y2="200.57" stroke="#F3F3F3"/>
<line x1="-3.99933" y1="299.5" x2="796.001" y2="300.57" stroke="#F3F3F3"/>
<line x1="-3.99933" y1="399.5" x2="796.001" y2="400.57" stroke="#F3F3F3"/>
</g>
<defs>
<clipPath id="clip0_5_2">
<rect width="800" height="500" fill="white"/>
</clipPath>
</defs>
</svg>
