<svg xmlns="http://www.w3.org/2000/svg" viewBox="0 0 500 500"><g id="freepik--background-complete--inject-250"><rect y="382.4" width="500" height="0.25" style="fill:#ebebeb"></rect><rect x="416.78" y="398.49" width="33.12" height="0.25" style="fill:#ebebeb"></rect><rect x="322.53" y="401.21" width="8.69" height="0.25" style="fill:#ebebeb"></rect><rect x="396.59" y="389.21" width="19.19" height="0.25" style="fill:#ebebeb"></rect><rect x="52.46" y="390.89" width="43.19" height="0.25" style="fill:#ebebeb"></rect><rect x="104.56" y="390.89" width="6.33" height="0.25" style="fill:#ebebeb"></rect><rect x="131.47" y="395.11" width="93.68" height="0.25" style="fill:#ebebeb"></rect><path d="M237,337.8H43.91a5.71,5.71,0,0,1-5.7-5.71V60.66A5.71,5.71,0,0,1,43.91,55H237a5.71,5.71,0,0,1,5.71,5.71V332.09A5.71,5.71,0,0,1,237,337.8ZM43.91,55.2a5.46,5.46,0,0,0-5.45,5.46V332.09a5.46,5.46,0,0,0,5.45,5.46H237a5.47,5.47,0,0,0,5.46-5.46V60.66A5.47,5.47,0,0,0,237,55.2Z" style="fill:#ebebeb"></path><path d="M453.31,337.8H260.21a5.72,5.72,0,0,1-5.71-5.71V60.66A5.72,5.72,0,0,1,260.21,55h193.1A5.71,5.71,0,0,1,459,60.66V332.09A5.71,5.71,0,0,1,453.31,337.8ZM260.21,55.2a5.47,5.47,0,0,0-5.46,5.46V332.09a5.47,5.47,0,0,0,5.46,5.46h193.1a5.47,5.47,0,0,0,5.46-5.46V60.66a5.47,5.47,0,0,0-5.46-5.46Z" style="fill:#ebebeb"></path><g id="freepik--group--inject-250"><path d="M69.64,262.43c.25.87.55,1.44.87,1.46a15.08,15.08,0,0,0,1.62,0,13.83,13.83,0,0,0,1.41.64l3.93-8a26.32,26.32,0,0,1-3.88-3.36,1.08,1.08,0,0,0-.44-.47A16.37,16.37,0,0,1,69.59,247c-1.44-4.4,6.9-16.11,10.08-20.35l2.45,39.06,3.06.57c-.2,14.07-.63,38.52-1.36,51.68-.76,13.69-2.23,39.92-2.76,49.27h-.77v3.48h2.6l0,1-.19,5.42h-.43a.47.47,0,0,0-.46.37l-1.06,4.79a.8.8,0,0,0,.61,1h.18c2.11,0,3.66-.16,6.31-.16,1.64,0,6.58.17,8.84.17s2.56-2.23,1.64-2.44a25.77,25.77,0,0,1-7.78-2.75h0a1.63,1.63,0,0,0,1-.27.79.79,0,0,0,.27-.69.37.37,0,0,0-.22-.35c-.32-.17-.94.05-1.5.32a1.94,1.94,0,0,0,.62-1.26.42.42,0,0,0-.41-.33.66.66,0,0,0-.54.16,2.79,2.79,0,0,0-.68,1.54,1.09,1.09,0,0,0-.36-.06h-.72l.23-6.45h3.62l.44-3.7-1.11,0c.36-2.57.9-6.34,1.53-10.75,0-.27.07-.54.11-.81.13-.87.25-1.76.38-2.67,1.72-12.05,3.92-27.41,5.28-36.75,0-.36.1-.75.16-1.15,1-7.18,2.07-19.53,3-31.18l.24.67c0,.16.11.31.17.47s.17.52.25.79l.15.46c.09.27.17.54.25.82s.1.33.14.5l.24.84c0,.18.09.35.14.52s.15.59.23.88.09.36.13.53c.26,1.07.51,2.17.75,3.31,0,.18.07.36.11.54l.21,1.09.09.45c.56,3,1,6.13,1.48,9.43.37,2.78.69,5.64,1,8.56,0,0,0,.1,0,.15l.15,1.57v.18l.15,1.64v.08c.15,1.75.29,3.51.41,5.26,0,.08,0,.16,0,.23,0,.49.07,1,.1,1.47l0,.36c0,.45.06.9.08,1.34l0,.41.09,1.37c0,.11,0,.22,0,.32.07,1.14.14,2.27.2,3.39a2.81,2.81,0,0,0,0,.29c0,.45.05.91.07,1.37,0,.15,0,.31,0,.46l.06,1.15c0,.19,0,.38,0,.57,0,.35,0,.7.05,1.05l0,.6c0,.36,0,.72,0,1.08,0,.17,0,.33,0,.49,0,.48,0,.95.05,1.41a1.7,1.7,0,0,1,0,.22c0,.5,0,1,0,1.48,0,.19,0,.38,0,.56l0,.95c0,.21,0,.42,0,.63l0,.88c0,.21,0,.43,0,.65s0,.53,0,.8,0,.44,0,.66,0,.54,0,.81,0,.42,0,.63,0,.7,0,1.05,0,.49,0,.74,0,.6,0,.9,0,.43,0,.64,0,.43,0,.64,0,.49,0,.73,0,.37,0,.55,0,.46,0,.68,0,.41,0,.61,0,.42,0,.62,0,.39,0,.58v.61c0,.26,0,.52,0,.78s0,.6,0,.9v.47c0,.21,0,.4,0,.6v.49c0,.16,0,.33,0,.49v2.32c0,.17,0,.34,0,.5V365c0,.12,0,.24,0,.36v1.46c0,.2,0,.38,0,.55l-.84-.11-.36,3.31L111,371l-.13,1.45s-.4,4.61-.4,4.61H110a.47.47,0,0,0-.46.37l-1.06,4.79a.8.8,0,0,0,.62.94.47.47,0,0,0,.17,0c2.12,0,3.66-.16,6.32-.16,1.64,0,6.58.17,8.84.17s2.56-2.24,1.63-2.44a26,26,0,0,1-7.78-2.75h0a1.62,1.62,0,0,0,1-.27.74.74,0,0,0,.27-.69.36.36,0,0,0-.22-.35c-.31-.17-.94.05-1.49.31.37-.43.68-.93.62-1.25a.43.43,0,0,0-.42-.33.67.67,0,0,0-.54.16,2.75,2.75,0,0,0-.67,1.54,1.13,1.13,0,0,0-.36-.06h-.43l.45-5.24,3.58.54.85-3.47-1.76-.23a274.44,274.44,0,0,0,1.92-29.51c.44-29.13-3-56.84-5.51-73L119,267c.06,0-.44-24-.65-26.16-.77-8.22-2.26-16.33-3.27-24.5a5.7,5.7,0,0,0,3.3-1.47c4.19-4.92,8.31-10.08,10.6-16.13a43.39,43.39,0,0,0,2.63-16.16c-.12-3.68-2.76-5.58-2.76-9.15a4.3,4.3,0,0,0,.81-1.22c.28-.68.14-5.7,0-7.19s-6.77-.4-7.18,0,0,8.41,0,8.41c4.33.83,2.76,8.58,2.61,11.59-.18,3.86-.38,7.78-1.72,11.4-1.4,3.79-14.93,18.77-16.73,8.41.56,0,1.14-.25,1.69-.24a8.56,8.56,0,0,0-.72-3.14c-2.08,0-4.25-.19-6.33,0l-3.36.31a7.87,7.87,0,0,1,0-1,7.25,7.25,0,0,0,1.85-.64,7.49,7.49,0,0,0,3.67-4.13,6.12,6.12,0,0,0,.24-.76,19,19,0,0,0,.22-7.61c.28-1.24-.08-2.55.14-3.74.66-3.53,0-6.8-4.12-7.79a11.82,11.82,0,0,0-5.25.25c-3.67.8-8.84,1.64-9.66,6.21-.43,2.38,1.34,4.39,1.89,6.61a2.4,2.4,0,0,0-.4,2.75,5.06,5.06,0,0,0,2,2.19,13.49,13.49,0,0,0,2.22,3.49c.13.2.28.39.43.58a23.48,23.48,0,0,1,.23,4.16l-3.76.34L82.82,204l.91,2.88h.81l.06.35-6,2s-14.92,18.46-17.16,34.25A18.75,18.75,0,0,0,69.64,262.43ZM118.27,375.7c.06.32-.49,1.08-1,1.54l-.13-.09a3,3,0,0,1,.61-1.47.44.44,0,0,1,.29-.11h.06C118.25,375.57,118.27,375.67,118.27,375.7Zm-.38,2a3,3,0,0,1-.34-.26,5.54,5.54,0,0,1,1.57-.6.33.33,0,0,1,.17,0s.07.05.08.15a.54.54,0,0,1-.17.46A2.59,2.59,0,0,1,117.89,377.69Zm-27.37-1.82c.06.32-.5,1.08-1,1.54l-.14-.08a3.08,3.08,0,0,1,.61-1.48.44.44,0,0,1,.29-.11h.06C90.5,375.74,90.51,375.84,90.52,375.87Zm-.39,2a2.91,2.91,0,0,1-.33-.26,5.14,5.14,0,0,1,1.57-.59.23.23,0,0,1,.16,0s.08,0,.08.15a.51.51,0,0,1-.17.46A2.56,2.56,0,0,1,90.13,377.86Z" style="fill:#ebebeb"></path><polygon points="137.88 239.16 137.81 301.4 74.34 301.58 71.48 239.35 137.88 239.16" style="fill:#f5f5f5"></polygon></g><path d="M441.15,265.77a6.76,6.76,0,0,0-3.17.29,2.47,2.47,0,0,0-.38,1.17c-2.08.54-7.93,1.79-11-.2a5.74,5.74,0,0,1-1.07-1c-2.94-3.19-4.87-7.58-6.77-11.43q-1.41-2.88-2.74-5.8c-.41-.89-.91-3.1-2.11-3.06a1.72,1.72,0,0,0-1-1.54c-.57-.34-1.26-.69-1.4-1.34-.19-.87.71-1.56,1.48-2a6.3,6.3,0,0,0,2.66-2.55,5.78,5.78,0,0,0,.4-2.27,23.43,23.43,0,0,0-3.6-13,11.2,11.2,0,0,0-2.22-2.67c-2.71-2.26-6.69-2.29-10.07-1.29-2.57.75-4.85,1-6.49,3.31a18.62,18.62,0,0,0-2.23,17,5.44,5.44,0,0,1,.48,1.88,1.54,1.54,0,0,1-1,1.53c-1,.31-1.42.35-2,1.28-2,3.17-12.84,19.71-18.24,21.76-4.89,1.86-11.2-.46-13.35-1.37-.05-.41-.12-.77-.18-1.05-.16-.67-2.54-.44-3.19-.26s-.52,7.18.23,8.23a6.7,6.7,0,0,0,2.68-.36c2.85,1.68,7.66,4,11.51,2.92,7.9-2.14,13.94-9,17.24-13.54-1.67,12.32-2.69,26.45-2.69,26.45l3.78.9-.34,2.51L379,328.19l-6.52,37-.89-.29.11,3.35,1.15.37-.34,1.51-1.06,4.8-.58-.07s-.22.16-.61.41c0-.12-.24-1.36-.89-1.77a.84.84,0,0,0-.68-.1c-.26.07-.4.2-.42.38s.29.62.68.92a2.31,2.31,0,0,0-1.2-.08.58.58,0,0,0-.34.31.49.49,0,0,0,0,.58,1.09,1.09,0,0,0,.83.24,7.13,7.13,0,0,0,1.58-.23,14.83,14.83,0,0,1-6,2.24c-3.27.18-1.85,2.37,1.65,3l8.66,1.53c2.49.44,1.31-2,2-6.4,0-.1-.29-.21-.75-.32,0,0,1.43-4.75,1.44-4.74l.26-.86,1.17.37,1.25-2.82-.6-.2c6.21-15.55,10.66-28.58,13.82-39.43,1.73-6,3.09-11.29,4.13-16l-.3,17.41v37.53l-.92-.14.69,3.29,1.19.16-.06,1.55-.22,4.91-.58,0s-.19.2-.52.51c0-.11-.48-1.29-1.19-1.59a.81.81,0,0,0-.68,0c-.25.12-.36.27-.35.45s.39.56.82.79a2.22,2.22,0,0,0-1.19.13.55.55,0,0,0-.28.36.52.52,0,0,0,.12.57.77.77,0,0,0,.47.13,5.7,5.7,0,0,0,1.92-.55,14.69,14.69,0,0,1-5.57,3.26c-3.18.75-1.4,2.66,2.15,2.66h8.79c2.53,0,.95-2.15.85-6.64,0-.11-.32-.17-.79-.2,0,0,.58-4.91.59-4.91l.1-.89,1.22.17.75-3-.63-.09c8.79-42.29,9-66,7.49-78.49l6.05-.94-1.16-24.89c3,4.54,7.26,10.32,9.45,11,2.7.8,9.2-.39,12.46-1.08,0,.05,0,.09,0,.13.09.68,2.48.66,3.15.54S441.8,266.88,441.15,265.77Z" style="fill:#ebebeb"></path><polygon points="355.48 255.91 357.08 311.33 434.81 317.76 440.94 258.11 355.48 255.91" style="fill:#f5f5f5"></polygon><path d="M171.86,250.22q0-.85-.06-1.74l-.06-1.37c0-.46-.05-.94-.08-1.41s0-.78-.08-1.18c-.05-.71-.1-1.44-.16-2.17,0-.4-.07-.8-.11-1.2s-.08-1-.13-1.42l-.12-1.26c-.07-.71-.15-1.42-.22-2.14l-.18-1.58c0-.26-.06-.52-.1-.78-.13-1.14-.27-2.26-.42-3.39-1.73-13.37-4.15-25.53-4.14-25.53a78.14,78.14,0,0,1,8.94-1.64l-.1,0,2.93-3.36.12.06a20.7,20.7,0,0,0-.08-6.37q-.21-.3-.39-.6a13.37,13.37,0,0,1-2.06-3.7c-.45-1.15-1.72-2.14-2.2-3.53a14.72,14.72,0,0,1-.83-3.34c-.24-3.26,1.56-5.77,4.11-7.6a10.73,10.73,0,0,1,4-1.93,12,12,0,0,1,2.93-.2A29.89,29.89,0,0,1,191,174a4.85,4.85,0,0,1,2,1,3.56,3.56,0,0,1,.74,1.24,5.68,5.68,0,0,1-.9,5.43c-1.26,1.55-1.18,3-1.27,4.94l0,0c.67,3.42-2.05,7.76-2.05,7.76a4.45,4.45,0,0,1-1.71,1,7.43,7.43,0,0,1-3.08,1.25,6.78,6.78,0,0,0,.26,2.53,3.8,3.8,0,0,0,1,1.57l0-.13,2.86,1a2.32,2.32,0,0,1,1,.67l3,0c3.45,0,5.64.09,5.64.09,4.53,16.95,3.13,46.88,2.94,50.56,0,.24,0,.37,0,.37s.37,3.14.36,3.14C205,276,212.19,332,206.35,376.76l-2.95-.37,0,.47h.44a1.4,1.4,0,0,1,.93.35c1.36,1.22,4.55,2.51,8.8,3.43.94.21.64,2.49-1.67,2.49s-7.37-.17-9-.17c-2.72,0-4.29.13-6.46.17l-.18,0a.8.8,0,0,1-.62-1l1.08-4.91a.49.49,0,0,1,.47-.38h.51l.11-1.17-1.28-.16s.92-70.53-7.82-94c-1,12.57-2.2,25.94-3.23,33.06-2.55,17.52-8,61.4-8,61.4h-2.69l0,1.07h.74a1.31,1.31,0,0,1,.92.35c1.36,1.22,4.56,2.5,8.8,3.43.95.21.65,2.49-1.67,2.49s-7.36-.18-9-.18c-2.72,0-4.3.14-6.46.17h-.18a.83.83,0,0,1-.63-1l1.09-4.9a.48.48,0,0,1,.47-.38h.44l0-1.07h-1.89s2.06-42.25,3-59.46c1-18.69,1.49-59.66,1.53-63.5v-.22c0-.5,0-1,0-1.55C171.87,250.9,171.86,250.56,171.86,250.22Z" style="fill:#ebebeb"></path><path d="M271.26,238.77s-.18-3.94-.5-8.08a21.65,21.65,0,0,0,.77-5.5,34.65,34.65,0,0,0-1.67-4.22,5.39,5.39,0,0,0,.31-2.85q-.41-5.66-.8-11.32a24.73,24.73,0,0,0-1-6.12,12.81,12.81,0,0,0-13.48-8.37c-4.38.61-11,5.3-10.22,10.41.31,2.16,2.2,4.09,2.76,6.26.46,1.76.12,4.73,2.23,5.54a6.84,6.84,0,0,0,.72.25,4.78,4.78,0,0,0,3.62,1c.09.33.18.66.23.95a7.69,7.69,0,0,1,.19,1.77c-2.14.43-3.77,1.15-4.15,2l-1,.25c-1.4.21-2.68.43-3.63.61a2.72,2.72,0,0,0-2.2,2.15c-1.44,2.81-2.36,8.22-2.36,8.22l1.11.76,1,.71c.1,3.2.35,7.16.86,11.94.06.64.11,1,.11,1l.11.93,0,.32s0,.2,0,.19c.35,3,.8,6.26,1.38,9.84H246c-2.12,9.64-9.19,42.12-11.36,56.05-2.25,14.48-7.68,44-9.3,52.75l-1-.25-.16,2.83,1.69.5-.33,1.24-1.26,4.83-.22-.07a1.4,1.4,0,0,0-.81,0,3.12,3.12,0,0,0-.25-1.9,1,1,0,0,0-.61-.42c-.38-.06-.53.09-.6.22-.14.33.11,1,.45,1.55-.62-.5-1.39-1-1.83-.92a.41.41,0,0,0-.3.27.7.7,0,0,0,0,.67,2,2,0,0,0,1.2.69c.32.09.64.15,1,.21a15.23,15.23,0,0,1-7.3.87c-1-.07-1.5,2.14.71,2.79s5.55,1.43,7.15,1.9c2.58.76,3.54,1.17,5.59,1.8l.09,0a.88.88,0,0,0,1-.72l.69-4.85a.44.44,0,0,0-.31-.49l-.43-.12,1.58-6.07,1.39.41,1.26-2.88-1.08-.27c2.44-9.16,10.4-39.21,13.47-53.35,1.76-8.09,5.24-17.39,8.58-26.74.6,9.88,1.27,19.71,1.82,25.91,1.32,14.63,2.88,44.93,3.32,53.87l-1.15,0,.64,2.77h1.77l0,1,.16,5.5h-.17a1.19,1.19,0,0,0-.26,0,2.83,2.83,0,0,0-.72-1.53,1,1,0,0,0-.73-.22c-.35,0-.48.21-.48.36-.07.36.32.9.8,1.35-.73-.3-1.62-.58-2-.36a.38.38,0,0,0-.22.34.69.69,0,0,0,.23.63,2.07,2.07,0,0,0,1.32.34l.41,0a15.32,15.32,0,0,1-6.68,2.81c-.94.2-.83,2.47,1.47,2.47s5.72-.17,7.39-.17c2.7,0,3.73.13,5.87.16h.09a.89.89,0,0,0,.79-1l-.7-4.86a.44.44,0,0,0-.44-.37h-.51l-.15-5.5,0-1H268l.4-3.1-1,0c.28-9.24,1.14-38.94.71-53.22-.54-18.09,3.65-41.13,1.11-58.26,0-.86-.07-1.7-.1-2.54a8.19,8.19,0,0,0,3.2-.81c1.05-1.23.57-9.68.47-10.7A11.16,11.16,0,0,0,271.26,238.77Z" style="fill:#ebebeb"></path><path d="M339.66,366.89h-.78c-.53-9.41-2.05-36.38-2.83-50.44-1.08-19.48-1.53-63.16-1.52-63.74.25-2.26.07-8.85.52-17.51.16-3,.39-6.16.75-9.5.08-.84.18-1.69.29-2.54.05-.41.11-.83.16-1.24.08-.58.15-1.17.24-1.76.16-1.13.33-2.25.52-3.37.09-.49.17-1,.26-1.48.13-.68.25-1.36.39-2,.55-2.76,1.18-5.51,1.92-8.24a71.39,71.39,0,0,0-7.4-1.56c-2.16-.35-2.93-.16-2.86-2.63a11.66,11.66,0,0,1,1.78-5.23c1.36-2.37,3.12-4.55,4-7.14,1.38-4.15-.46-7.49-4.18-9.34a26,26,0,0,0-9.5-2.62,8.91,8.91,0,0,0-5.91,1.15c-3.36,2.4-1.78,10.78-.69,14.22,1,3.22,5.59,8.56,6.73,6.89a4.23,4.23,0,0,1-.7,1.61,5.06,5.06,0,0,1-3.5,1.85l0,0c-.5,0-1,.05-1.5.05-1.31.08-2.55.21-3.62.35a5.84,5.84,0,0,0-1.38.36,5.45,5.45,0,0,0-3.61.79,4.48,4.48,0,0,0-.82.63c-4.89,4.74-2,18.89-2,18.89a127.7,127.7,0,0,0,.75,27.33c-.28.89-14.67,48-13.79,63.84.81,14.56,17.22,42.47,22.73,51.47l-1.41.86,2.22,2.89,3.13-2,3.06,5.55-.19.12a1.6,1.6,0,0,0-.27.25,2.57,2.57,0,0,0-1.41-1,.79.79,0,0,0-.57.17.45.45,0,0,0-.2.52c.11.33.68.6,1.27.75-.65.1-1.38.27-1.59.6a.42.42,0,0,0,0,.43.7.7,0,0,0,.56.42,1.82,1.82,0,0,0,1.08-.36l.05,0c-.9,1.57-2.84,3.35-6.72,4.8-.94.35-.68,2.53,1.62,2.37s8.54-3.52,10-4.45c2.4-1.52,3.44-2,5.36-3.23l.14-.09a.84.84,0,0,0,.1-1.17L327,370a.46.46,0,0,0-.59,0l-.49.31s-2.34-4.24-2.33-4.24l-.72-1.31,2.49-1.58-1.71-2.95-.22.14c-4-8.94-15.41-35.66-15.92-46.77.45-9.72,5.19-25.07,9.8-38,1.09,14.11,2.5,30.71,3.7,39,2.08,14.28,6.08,42.32,7.49,52.18l-1.16,0,.45,3.79h3.7l.23,6.59H331a1.51,1.51,0,0,0-.36.06,2.9,2.9,0,0,0-.69-1.57.76.76,0,0,0-.56-.17.44.44,0,0,0-.42.35c-.06.32.25.83.63,1.28-.56-.27-1.2-.49-1.52-.33a.39.39,0,0,0-.23.37.78.78,0,0,0,.27.7,1.67,1.67,0,0,0,1.06.28h.05a26.29,26.29,0,0,1-7.95,2.82c-.95.21-.65,2.49,1.67,2.49s7.36-.18,9-.18c2.72,0,4.3.14,6.46.17h.18a.83.83,0,0,0,.63-1l-1.09-4.9a.48.48,0,0,0-.47-.38h-.44L337,371.5l0-1.05h2.66Z" style="fill:#ebebeb"></path><path d="M249.14,222s-13.13-.55-15.09-8.86.77-23.18.77-23.18l2-2.7v-5.47l-6.44.59,1.63,5.39s-6.93,22.44-4.31,28.14,4.37,11.07,18,14.44Z" style="fill:#ebebeb"></path><path d="M265.88,219.83s12.87,2.72,18.82,12,0,32.49,0,32.49v3.15l-6.54,1,1.46-6.09,2.1-1.55s-.13-16.45-1.34-21.52-14.5-9-14.5-9Z" style="fill:#ebebeb"></path><path d="M310.81,203s-10.69-3.76-17.07-10.75-6.4-28.45-6.4-28.45l3.83-6.89-3.47-4.1-7.32,3.45,3.59,7.3s.35,31,5.89,39.17,18.3,14.3,18.3,14.3Z" style="fill:#ebebeb"></path><path d="M335.54,204.26s9.1-8.66,10.49-12.56,0-33.46,0-33.46l-3.42-4.58,1.44-3.24,9.69-.25v3.55l-4.21,3.43s5.43,19,2.84,35.12-16.83,25.83-16.83,25.83Z" style="fill:#ebebeb"></path><path d="M192.8,202.34s10.77-11.12,14-16.29,15.75-26.68,15.75-26.68l6.13.22s-7.8,22.32-11.08,27.64-20.37,30.87-20.37,30.87Z" style="fill:#ebebeb"></path><path d="M171.69,206s-12-15.91-16.25-24.1-5.87-25.66-5.87-25.66l-6.88-.76s2.37,23.09,5,33.79,21.62,33.08,21.62,33.08Z" style="fill:#ebebeb"></path><polygon points="130.6 105.79 135.37 166.19 367.68 152.14 362.84 90.89 130.6 105.79" style="fill:#f5f5f5"></polygon><path d="M62.09,383.31V357.49h41.49l19.29,25.1S59.45,383.31,62.09,383.31Z" style="fill:#ebebeb"></path><polygon points="62.09 357.49 80.55 383.08 62.09 383.31 62.09 357.49" style="fill:#e0e0e0"></polygon><path d="M432.45,383.31V357.49H391l-19.29,25.1S435.09,383.31,432.45,383.31Z" style="fill:#ebebeb"></path><polygon points="432.45 357.49 413.99 383.08 432.45 383.31 432.45 357.49" style="fill:#e0e0e0"></polygon><path d="M386.68,77.81l27.48-7h0a14.12,14.12,0,0,1,14.12,14.12h0a12.7,12.7,0,0,1-6,10.77l-11.44,7.17Z" style="fill:#e0e0e0"></path><polygon points="386.68 77.81 389.58 102.87 410.88 102.87 408.74 77.81 386.68 77.81" style="fill:#e6e6e6"></polygon><polygon points="386.68 77.81 384.39 67.55 401.87 67.55 408.74 77.81 386.68 77.81" style="fill:#f0f0f0"></polygon><path d="M407.85,89.27c1.45,5.83-1.4,11.56-6.37,12.79s-10.17-2.48-11.62-8.32,1.4-11.56,6.37-12.79S406.4,83.43,407.85,89.27Z" style="fill:#f5f5f5"></path><polygon points="386.68 77.81 374.81 84.65 377.82 102.39 389.58 102.87 386.68 77.81" style="fill:#f0f0f0"></polygon><polygon points="389.58 102.87 389.54 113.46 404.02 113.46 410.88 102.87 389.58 102.87" style="fill:#f0f0f0"></polygon><polygon points="408.74 77.81 416.13 83.75 417.09 101.38 410.88 102.87 408.74 77.81" style="fill:#f0f0f0"></polygon><path d="M97,77.81l-27.48-7h0A14.13,14.13,0,0,0,55.43,84.93h0a12.7,12.7,0,0,0,6,10.77l11.44,7.17Z" style="fill:#e0e0e0"></path><polygon points="97.03 77.81 94.13 102.87 72.83 102.87 74.97 77.81 97.03 77.81" style="fill:#e6e6e6"></polygon><polygon points="97.03 77.81 99.32 67.55 81.84 67.55 74.97 77.81 97.03 77.81" style="fill:#f0f0f0"></polygon><path d="M75.86,89.27c-1.45,5.83,1.4,11.56,6.37,12.79s10.17-2.48,11.62-8.32S92.45,82.18,87.49,81,77.31,83.43,75.86,89.27Z" style="fill:#f5f5f5"></path><polygon points="97.03 77.81 108.91 84.65 105.89 102.39 94.13 102.87 97.03 77.81" style="fill:#f0f0f0"></polygon><polygon points="94.13 102.87 94.17 113.46 79.69 113.46 72.83 102.87 94.13 102.87" style="fill:#f0f0f0"></polygon><polygon points="74.97 77.81 67.58 83.75 66.62 101.38 72.83 102.87 74.97 77.81" style="fill:#f0f0f0"></polygon><path d="M65.05,158.33c1.07-2.63,4-2.19,5.8-.59,1.13-2.1,3.78-3.49,5.65-1.36,3.17,3.6-1.3,8.2-3.46,10.07l-.62.53-.76-.3C69,165.63,63.26,162.78,65.05,158.33Z" style="fill:#ebebeb"></path><path d="M416.28,128.2c2.28-3.44,6.37-1.95,8.41.85,2.23-2.66,6.41-3.87,8.46-.28,3.45,6-4.26,11.28-7.88,13.31-.41.24-.75.43-1,.58l-1-.65C419.76,139.74,412.43,134,416.28,128.2Z" style="fill:#ebebeb"></path><path d="M419.42,154.83c1.76-1.08,3.3.45,3.64,2.15,1.57-.74,3.72-.41,3.9,1.65.3,3.47-4.3,4.23-6.37,4.39l-.59,0-.31-.5C418.58,160.81,416.45,156.66,419.42,154.83Z" style="fill:#ebebeb"></path><path d="M405.79,143.19c1.85-2.11,4.47-.73,5.59,1.35,1.74-1.59,4.67-2,5.71.58,1.77,4.39-3.9,7.21-6.52,8.24l-.75.29-.61-.52C407.08,151.28,402.67,146.74,405.79,143.19Z" style="fill:#ebebeb"></path><path d="M76.88,142.35c1.47-2.95,4.85-2.18,6.75-.16,1.5-2.33,4.69-3.71,6.67-1.07,3.33,4.45-2.25,9.36-4.92,11.33l-.76.56-.85-.41C80.79,151.15,74.41,147.33,76.88,142.35Z" style="fill:#ebebeb"></path></g><g id="freepik--Shadow--inject-250"><ellipse id="freepik--path--inject-250" cx="250" cy="416.24" rx="193.89" ry="11.32" style="fill:#f5f5f5"></ellipse></g><g id="freepik--Graphics--inject-250"><polygon points="274.18 89.89 273.05 83.02 271.92 89.89 265.05 91.02 271.92 92.15 273.05 99.02 274.18 92.15 281.05 91.02 274.18 89.89" style="fill:#225EE8"></polygon><polygon points="274.18 89.89 273.05 83.02 271.92 89.89 265.05 91.02 271.92 92.15 273.05 99.02 274.18 92.15 281.05 91.02 274.18 89.89" style="fill:#fff;opacity:0.7000000000000001"></polygon><polygon points="90.34 166.03 89.36 160.02 88.36 166.03 82.36 167.02 88.36 168.01 89.36 174.02 90.34 168.01 96.36 167.02 90.34 166.03" style="fill:#225EE8"></polygon><polygon points="90.34 166.03 89.36 160.02 88.36 166.03 82.36 167.02 88.36 168.01 89.36 174.02 90.34 168.01 96.36 167.02 90.34 166.03" style="fill:#fff;opacity:0.7000000000000001"></polygon><polygon points="308.01 139.83 307.3 135.54 306.6 139.83 302.3 140.54 306.6 141.25 307.3 145.54 308.01 141.25 312.3 140.54 308.01 139.83" style="fill:#225EE8"></polygon><polygon points="308.01 139.83 307.3 135.54 306.6 139.83 302.3 140.54 306.6 141.25 307.3 145.54 308.01 141.25 312.3 140.54 308.01 139.83" style="fill:#fff;opacity:0.7000000000000001"></polygon><polygon points="297.18 238.68 296.48 234.39 295.77 238.68 291.48 239.39 295.77 240.09 296.48 244.39 297.18 240.09 301.48 239.39 297.18 238.68" style="fill:#225EE8"></polygon><polygon points="297.18 238.68 296.48 234.39 295.77 238.68 291.48 239.39 295.77 240.09 296.48 244.39 297.18 240.09 301.48 239.39 297.18 238.68" style="fill:#fff;opacity:0.7000000000000001"></polygon><polygon points="134.88 231.11 134.1 226.39 133.32 231.11 128.6 231.89 133.32 232.67 134.1 237.39 134.88 232.67 139.6 231.89 134.88 231.11" style="fill:#225EE8"></polygon><polygon points="134.88 231.11 134.1 226.39 133.32 231.11 128.6 231.89 133.32 232.67 134.1 237.39 134.88 232.67 139.6 231.89 134.88 231.11" style="fill:#fff;opacity:0.7000000000000001"></polygon><polygon points="205.98 126.83 204.99 120.82 204 126.83 197.99 127.82 204 128.81 204.99 134.82 205.98 128.81 211.99 127.82 205.98 126.83" style="fill:#225EE8"></polygon><g style="opacity:0.7000000000000001"><polygon points="205.98 126.83 204.99 120.82 204 126.83 197.99 127.82 204 128.81 204.99 134.82 205.98 128.81 211.99 127.82 205.98 126.83" style="fill:#fff"></polygon></g><polygon points="410.66 177.78 409.67 171.77 408.68 177.78 402.67 178.77 408.68 179.76 409.67 185.77 410.66 179.76 416.67 178.77 410.66 177.78" style="fill:#225EE8"></polygon><g style="opacity:0.7000000000000001"><polygon points="410.66 177.78 409.67 171.77 408.68 177.78 402.67 178.77 408.68 179.76 409.67 185.77 410.66 179.76 416.67 178.77 410.66 177.78" style="fill:#fff"></polygon></g></g><g id="freepik--character-1--inject-250"><g id="freepik--group--inject-250"><polygon points="198.18 384.31 213.16 405.26 221.77 417.29 228.33 413.12 220.51 399.59 209.29 380.19 198.18 384.31" style="fill:#eec1bb"></polygon><polygon points="92.59 416.37 100.71 416.2 103.87 405.15 110.59 381.61 99.91 376.49 94.74 404.63 92.59 416.37" style="fill:#eec1bb"></polygon><polygon points="209.29 380.19 198.18 384.31 213.16 405.26 220.51 399.59 209.29 380.19" style="opacity:0.2;isolation:isolate"></polygon><polygon points="94.74 404.63 103.87 405.15 110.59 381.61 99.91 376.49 94.74 404.63" style="opacity:0.2;isolation:isolate"></polygon><path d="M90.68,413.12a2.35,2.35,0,0,1-1.5-.4,1.11,1.11,0,0,1-.39-1,.58.58,0,0,1,.32-.52c.86-.44,3.38,1.1,3.66,1.28a.18.18,0,0,1,.09.18.19.19,0,0,1-.14.16A9.38,9.38,0,0,1,90.68,413.12Zm-1.16-1.62a.39.39,0,0,0-.24.05s-.11.07-.12.22a.75.75,0,0,0,.25.66,3.74,3.74,0,0,0,2.77.14A7.52,7.52,0,0,0,89.52,411.5Z" style="fill:#263238"></path><path d="M92.67,412.84h-.09c-.8-.44-2.36-2.15-2.2-3a.61.61,0,0,1,.59-.48,1,1,0,0,1,.79.24c.9.73,1.09,3,1.1,3.08a.22.22,0,0,1-.09.17A.17.17,0,0,1,92.67,412.84Zm-1.57-3.16H91c-.23,0-.25.14-.26.18-.1.51.89,1.81,1.69,2.41a4.31,4.31,0,0,0-.92-2.43A.6.6,0,0,0,91.1,409.68Z" style="fill:#263238"></path><path d="M216.68,413.12a2.35,2.35,0,0,1-1.5-.4,1.11,1.11,0,0,1-.39-1,.58.58,0,0,1,.32-.52c.86-.44,3.38,1.1,3.66,1.28a.18.18,0,0,1,.09.18.19.19,0,0,1-.14.16A9.38,9.38,0,0,1,216.68,413.12Zm-1.16-1.62a.39.39,0,0,0-.24.05c-.05,0-.11.07-.12.22a.75.75,0,0,0,.25.66,3.74,3.74,0,0,0,2.77.14A7.52,7.52,0,0,0,215.52,411.5Z" style="fill:#263238"></path><path d="M218.67,412.84h-.09c-.8-.44-2.36-2.15-2.2-3a.61.61,0,0,1,.59-.48,1,1,0,0,1,.79.24c.9.73,1.09,3,1.1,3.08a.22.22,0,0,1-.09.17A.17.17,0,0,1,218.67,412.84Zm-1.57-3.16H217c-.23,0-.25.14-.26.18-.1.51.89,1.81,1.69,2.41a4.31,4.31,0,0,0-.92-2.43A.6.6,0,0,0,217.1,409.68Z" style="fill:#263238"></path><path d="M93.25,411.75h9.47a.67.67,0,0,1,.66.53l1.54,6.94a1.15,1.15,0,0,1-.89,1.36,1.07,1.07,0,0,1-.25,0c-3.06-.05-5.29-.24-9.14-.24-2.37,0-9.51.25-12.78.25s-3.7-3.23-2.36-3.53C85.5,415.78,90,414,92,412.24A1.88,1.88,0,0,1,93.25,411.75Z" style="fill:#225EE8"></path><path d="M219.25,411.75h9.47a.67.67,0,0,1,.66.53l1.54,6.94a1.15,1.15,0,0,1-.89,1.36,1.07,1.07,0,0,1-.25,0c-3.06-.05-5.29-.24-9.14-.24-2.37,0-9.51.25-12.78.25s-3.7-3.23-2.36-3.53c6-1.31,10.52-3.12,12.45-4.85A1.88,1.88,0,0,1,219.25,411.75Z" style="fill:#225EE8"></path><path d="M93.63,398.9l12.68,3.32s24.59-73,28.38-81c1.39-2.92,7-9.84,12.86-16.64,7.12-8.29,14.52-16.37,14.86-16.73v0s.13,38.88,5.23,53.95,41.77,60.44,41.77,60.44l9.85-6.5S189.72,344.91,187,332.28s8.2-69,0-103.62l-34.41,3.67-2.35,17.31S118.14,299,113.84,310C109.42,321.25,93.63,398.9,93.63,398.9Z" style="fill:#225EE8"></path><path d="M219.27,395.72l-9.85,6.5s-36.66-45.37-41.77-60.44a63,63,0,0,1-2.23-9.7c-2.91-17.72-3-44.25-3-44.25v0c-.34.36-7.74,8.44-14.86,16.73-5.83,6.8-11.47,13.72-12.86,16.64-3.79,8-28.38,81-28.38,81L93.63,398.9s15.79-77.65,20.21-88.9c4.3-11,36.39-60.36,36.39-60.36l2.35-17.31L187,228.66c8.2,34.57-2.74,91,0,103.62S219.27,395.72,219.27,395.72Z" style="fill:#fff;opacity:0.05"></path><g style="opacity:0.2;isolation:isolate"><path d="M93.63,398.9l12.68,3.32s24.59-73,28.38-81c1.39-2.92,7-9.84,12.86-16.64,7.12-8.29,14.52-16.37,14.86-16.73v0s.13,38.88,5.23,53.95,41.77,60.44,41.77,60.44l9.85-6.5S189.72,344.91,187,332.28s8.2-69,0-103.62l-34.41,3.67-2.35,17.31S118.14,299,113.84,310C109.42,321.25,93.63,398.9,93.63,398.9Z"></path><path d="M219.27,395.72l-9.85,6.5s-36.66-45.37-41.77-60.44a63,63,0,0,1-2.23-9.7c-2.91-17.72-3-44.25-3-44.25v0c-.34.36-7.74,8.44-14.86,16.73-5.83,6.8-11.47,13.72-12.86,16.64-3.79,8-28.38,81-28.38,81L93.63,398.9s15.79-77.65,20.21-88.9c4.3-11,36.39-60.36,36.39-60.36l2.35-17.31L187,228.66c8.2,34.57-2.74,91,0,103.62S219.27,395.72,219.27,395.72Z" style="opacity:0.05"></path></g><path d="M196.54,175.12s13.58,12.7,13.19,21.26-8.42,7.24-20,1L185.83,177Z" style="fill:#225EE8"></path><path d="M196.54,175.12s13.58,12.7,13.19,21.26-8.42,7.24-20,1L185.83,177Z" style="fill:#fff;opacity:0.4"></path><path d="M195.56,175.42c-2.59-4-5.74-9.67-5.57-10.18,1-3-8.13-10.36-10.65-10.36-1.32,0-3.25,5.65-3.25,7.72,0,1.83,7.47,5.75,9.43,5.48,0,0,1.9,5.42,4.47,11.55Z" style="fill:#eec1bb"></path><path d="M195.56,175.42c-2.59-4-5.74-9.67-5.57-10.18,1-3-8.13-10.36-10.65-10.36-1.32,0-3.25,5.65-3.25,7.72,0,1.83,7.47,5.75,9.43,5.48,0,0,1.9,5.42,4.47,11.55Z" style="opacity:0.1;isolation:isolate"></path><polygon points="187.44 175.12 193.88 171.31 196.54 175.12 188.22 178.77 187.44 175.12" style="fill:#225EE8"></polygon><path d="M119,129.34c-2.59-4-5.75-9.67-5.57-10.18,1-3-8.14-10.36-10.65-10.36-1.32,0-3.25,5.66-3.25,7.72,0,1.83,7.47,5.76,9.43,5.48,0,0,1.89,5.42,4.47,11.56Z" style="fill:#eec1bb"></path><path d="M163.92,151.94a11.13,11.13,0,0,0,.05,1.16,10.91,10.91,0,0,0,2.49,6,12,12,0,0,0,1.16,1.2,9.85,9.85,0,0,0,11.87,1.09c4.8-2.88,5.83-7.36,8.18-14.78A10.66,10.66,0,0,0,176,132.65C167.88,133.79,164,144.74,163.92,151.94Z" style="fill:#eec1bb"></path><path d="M166.46,159.08a12,12,0,0,0,1.16,1.2,9.91,9.91,0,0,0,8.16,2.47,11.79,11.79,0,0,0-.69-2.9A15.36,15.36,0,0,0,166.46,159.08Z" style="opacity:0.2;isolation:isolate"></path><path d="M182.08,171.29c-3.93,3.36-13.27,1.77-13.27,1.77s-5.8-1.79-4.52-3.58c3.47-.46,5.19-2,6-4a10.13,10.13,0,0,0,.47-3.93,20.93,20.93,0,0,0-.22-2.21l11.87-8.21C180.66,156.7,178.47,167.06,182.08,171.29Z" style="fill:#eec1bb"></path><path d="M193.42,137.54a12.85,12.85,0,0,0-1.87-2.61h0s-6.42-7.8-15.49-8.46a13.34,13.34,0,0,0-3.16.13,10.38,10.38,0,0,0-4.65,1c-2.7,1.34-4.45,4-5.19,7.93a.25.25,0,0,0,.2.3h0a.26.26,0,0,0,.25-.2c.71-3.76,2.37-6.31,4.92-7.58a8.64,8.64,0,0,1,2.08-.7l-.21.12a8.73,8.73,0,0,0-6,7.39,14.8,14.8,0,0,0,2.22,9.53.26.26,0,0,0,.21.11.27.27,0,0,0,.14,0,.25.25,0,0,0,.06-.35,14.56,14.56,0,0,1-2.13-9.18,8.22,8.22,0,0,1,3.57-6,9.64,9.64,0,0,0-1.94,8.21,5.8,5.8,0,0,0,1.69,3.21,8.23,8.23,0,0,0,0,5.14s.75,4,3.68,4.49c0,0,1.63,3.44.5,6.29s2.83,6.43,8.41,6.56a26,26,0,0,1,2.69-2c2-1,4.21-1.33,7.19-5.12a23,23,0,0,0,3.93-8.59A12.46,12.46,0,0,0,193.42,137.54Z" style="fill:#225EE8"></path><path d="M193.42,137.54a12.85,12.85,0,0,0-1.87-2.61h0s-6.42-7.8-15.49-8.46a13.34,13.34,0,0,0-3.16.13,10.38,10.38,0,0,0-4.65,1c-2.7,1.34-4.45,4-5.19,7.93a.25.25,0,0,0,.2.3h0a.26.26,0,0,0,.25-.2c.71-3.76,2.37-6.31,4.92-7.58a8.64,8.64,0,0,1,2.08-.7l-.21.12a8.73,8.73,0,0,0-6,7.39,14.8,14.8,0,0,0,2.22,9.53.26.26,0,0,0,.21.11.27.27,0,0,0,.14,0,.25.25,0,0,0,.06-.35,14.56,14.56,0,0,1-2.13-9.18,8.22,8.22,0,0,1,3.57-6,9.64,9.64,0,0,0-1.94,8.21,5.8,5.8,0,0,0,1.69,3.21,8.23,8.23,0,0,0,0,5.14s.75,4,3.68,4.49c0,0,1.63,3.44.5,6.29s2.83,6.43,8.41,6.56a26,26,0,0,1,2.69-2c2-1,4.21-1.33,7.19-5.12a23,23,0,0,0,3.93-8.59A12.46,12.46,0,0,0,193.42,137.54Z" style="opacity:0.30000000000000004;isolation:isolate"></path><path d="M173.66,148.72a5.07,5.07,0,0,1-3.36,2.71c-1.7.26-2.16-2.16-1.36-4.37.72-1.95,2.48-4.51,4-3.72S174.71,146.83,173.66,148.72Z" style="fill:#eec1bb"></path><path d="M156.15,160s26.62,6.12,37.73,19.33c0,0-4.27,42.3-3.79,56.27l-40.72-3.74S148.16,195.29,156.15,160Z" style="fill:#263238"></path><path d="M168.6,163.6S167,182.17,185,190.41s12.35-10.94,12.35-10.94S200.78,172.37,168.6,163.6Z" style="fill:#225EE8"></path><path d="M168.6,163.6S167,182.17,185,190.41s12.35-10.94,12.35-10.94S200.78,172.37,168.6,163.6Z" style="fill:#fff;opacity:0.5"></path><polygon points="149.37 231.89 149.31 236.71 191.57 238.75 190.09 235.63 149.37 231.89" style="fill:#225EE8"></polygon><polygon points="149.37 231.89 149.31 236.71 191.57 238.75 190.09 235.63 149.37 231.89" style="fill:#fff;opacity:0.5"></polygon><path d="M156.15,160s-20.66-7.69-23.82-12-14-20.69-14-20.69l-6.86,3.38s8.71,25.22,17.67,32.41,23.54,15.67,23.54,15.67S158.48,173.81,156.15,160Z" style="fill:#225EE8"></path><path d="M156.15,160s-20.66-7.69-23.82-12-14-20.69-14-20.69l-6.86,3.38s8.71,25.22,17.67,32.41,23.54,15.67,23.54,15.67S158.48,173.81,156.15,160Z" style="fill:#fff;opacity:0.5"></path><polygon points="118.35 127.31 116.89 124.63 110.56 127.31 111.49 130.69 118.35 127.31" style="fill:#225EE8"></polygon><path d="M182.36,269.09s-2,42.6-16.94,63c-2.91-17.72-3-44.25-3-44.25l9-10.5S178.73,275.76,182.36,269.09Z" style="opacity:0.2;isolation:isolate"></path><path d="M171.59,143.19a6.52,6.52,0,0,0-1.49.91c-.62.54-.48,3-.48,3s2.1-.59,1.47,1.18-1.71,1.48-1.71,1.48-2,4.23-6.32,4.56c-3,.23-3.77-.23-3.77-.23" style="fill:none;stroke:#263238;stroke-linecap:round;stroke-linejoin:round;stroke-width:0.75px"></path><path d="M157.86,154.68l1.27.2a.82.82,0,0,0,1-.68h0a.82.82,0,0,0-.68-.94l-1.27-.21a.83.83,0,0,0-.95.68h0A.83.83,0,0,0,157.86,154.68Z" style="fill:#263238"></path></g></g><g id="freepik--character-4--inject-250"><g id="freepik--group--inject-250"><polygon points="258.33 400.18 264.57 405.23 278.91 379.69 271.24 376.46 258.33 400.18" style="fill:#eec1bb"></polygon><polygon points="271.24 376.47 278.9 379.7 271.34 393.16 264.43 388.95 271.24 376.47" style="opacity:0.2;isolation:isolate"></polygon><path d="M267.28,400.43l-7.9-4a.72.72,0,0,0-.87.18l-7.38,8.85a1.2,1.2,0,0,0,.18,1.68l.23.14c2.86,1.39,5,2.26,8.6,4.07,2.2,1.11,8.72,4.69,11.76,6.23s5-1.27,3.84-2.17c-5-4-6.51-11.41-7.48-13.92A2,2,0,0,0,267.28,400.43Z" style="fill:#225EE8"></path><path d="M267.28,400.43l-7.9-4a.72.72,0,0,0-.87.18l-7.38,8.85a1.2,1.2,0,0,0,.18,1.68l.23.14c2.86,1.39,5,2.26,8.6,4.07,2.2,1.11,8.72,4.69,11.76,6.23s5-1.27,3.84-2.17c-5-4-6.51-11.41-7.48-13.92A2,2,0,0,0,267.28,400.43Z" style="fill:#fff;opacity:0.6000000000000001"></path><polygon points="239.23 408.55 246.86 411.07 251.25 382.11 242.94 381.8 239.23 408.55" style="fill:#eec1bb"></polygon><polygon points="242.94 381.81 251.25 382.13 248.93 397.39 240.97 395.89 242.94 381.81" style="opacity:0.2;isolation:isolate"></polygon><path d="M247.83,405H239a.71.71,0,0,0-.69.56l-2.6,11.22a1.18,1.18,0,0,0,.92,1.41l.26,0c3.19-.05,5.51-.25,9.51-.25,2.47,0,9.91.26,13.31.26s3.85-3.36,2.45-3.67c-6.25-1.36-10.95-7.25-12.95-9A1.92,1.92,0,0,0,247.83,405Z" style="fill:#225EE8"></path><path d="M247.83,405H239a.71.71,0,0,0-.69.56l-2.6,11.22a1.18,1.18,0,0,0,.92,1.41l.26,0c3.19-.05,5.51-.25,9.51-.25,2.47,0,9.91.26,13.31.26s3.85-3.36,2.45-3.67c-6.25-1.36-10.95-7.25-12.95-9A1.92,1.92,0,0,0,247.83,405Z" style="fill:#fff;opacity:0.6000000000000001"></path><path d="M303.3,313.8c-1.07,34.41-27.7,71.77-27.7,71.77l-.86,3L265.5,384l.77-2.23s-1-2.74,1.75-17.77,14.14-35.61,12.21-50.24c-.61-4.61-2.8-11.39-5.51-18.5C270.11,283.24,264,270.19,261.53,265c-.69-1.45-1.1-2.28-1.1-2.28l-2.72-41.27,17.89-11.73,3.69,27.71S304.22,284.13,303.3,313.8Z" style="fill:#263238"></path><path d="M303.3,313.8c-1.07,34.41-27.7,71.77-27.7,71.77l-.86,3L265.5,384l.77-2.23s-1-2.74,1.75-17.77,14.14-35.61,12.21-50.24c-.61-4.61-2.8-11.39-5.51-18.5C270.11,283.24,264,270.19,261.53,265c-.69-1.45-1.1-2.28-1.1-2.28l-2.72-41.27,17.89-11.73,3.69,27.71S304.22,284.13,303.3,313.8Z" style="fill:#fff;opacity:0.2"></path><path d="M274.72,295.3C270.11,283.24,264,270.19,261.53,265l5.29-22.15S277.74,273.58,274.72,295.3Z" style="opacity:0.2;isolation:isolate"></path><path d="M238,215.29s3.91,92.57,1.87,132.13c-1.45,28,1.35,40.19,1.35,40.19l9.1.95S264.06,367.2,266,250.73l9.57-41Z" style="fill:#263238"></path><path d="M278,217.66l-14.67.74-1.22.06L237,219.72s-3.29-49.29-9.3-60c0,0,11-2.93,27.78-2.75l1.34,0a136.89,136.89,0,0,1,14.32,1S278.17,176,278,217.66Z" style="fill:#225EE8"></path><path d="M241.86,159.21c3.95,3.59,13.62,2.27,13.62,2.27s6-1.66,4.78-3.55c-3.56-.58-5.29-2.24-6-4.37a10.45,10.45,0,0,1-.36-4.06,21.69,21.69,0,0,1,.3-2.27l-12-8.86C243.8,144.22,245.72,155,241.86,159.21Z" style="fill:#eec1bb"></path><path d="M245,144c.48,7.18,6.38,9.16,9.26,9.56a10.45,10.45,0,0,1-.36-4.06Z" style="opacity:0.2;isolation:isolate"></path><path d="M260.15,119.06s4.74,10.26.23,16-10.28-14.21-10.28-14.21Z" style="fill:#263238"></path><path d="M246.3,148.4a10.14,10.14,0,0,0,12.28.55,11.27,11.27,0,0,0,4.73-6.83,9.1,9.1,0,0,0,.22-1.18c.91-7.37-1.51-19.1-9.69-21.4a11,11,0,0,0-13.59,7.51,10.86,10.86,0,0,0-.24,5.1C241.37,140.07,241.8,144.79,246.3,148.4Z" style="fill:#eec1bb"></path><path d="M251.37,133c0,.65.47,1.14.91,1.09s.7-.62.63-1.27-.48-1.13-.9-1.08S251.3,132.36,251.37,133Z" style="fill:#263238"></path><path d="M258.72,132.2c0,.65.48,1.13.9,1.08s.71-.61.64-1.26-.48-1.14-.9-1.09S258.65,131.58,258.72,132.2Z" style="fill:#263238"></path><path d="M257.42,132.78a23.38,23.38,0,0,0,3.73,5.21,3.76,3.76,0,0,1-3.06.93Z" style="fill:#d4827d"></path><path d="M262.09,128.75a.39.39,0,0,1-.4,0,3.07,3.07,0,0,0-2.77,0,.39.39,0,0,1-.53-.13.38.38,0,0,1,.13-.52h0a3.8,3.8,0,0,1,3.5,0,.37.37,0,0,1,.19.5h0A.53.53,0,0,1,262.09,128.75Z" style="fill:#263238"></path><path d="M250.59,130.25a.4.4,0,0,1-.22-.05.38.38,0,0,1,0-.54h0a3.79,3.79,0,0,1,3.28-1.24.39.39,0,0,1,.31.44h0a.4.4,0,0,1-.45.31h0a3.09,3.09,0,0,0-2.58,1A.4.4,0,0,1,250.59,130.25Z" style="fill:#263238"></path><path d="M244.75,121.54l1,3.42a2.66,2.66,0,0,0-.78,3.5c1.6,2.75.67,7.58-1.29,9.76,0,0-.28-1.26-1.3-.78s.33,7.06,2.94,9.88c0,0-3.63-2.35-6.54-9-2.69-6.18-3.76-11.51-2.84-14.21Z" style="fill:#263238"></path><path d="M237.26,139.09a7.68,7.68,0,0,0,4.78,3.35c2.62.56,3.77-1.82,2.91-4.21-.78-2.12-3.08-5-5.65-4.51S236,137,237.26,139.09Z" style="fill:#eec1bb"></path><path d="M239.82,116s2.68-4.65,12.32-3.56,12.44,7.62,11.68,11.08-4.53,6.28-4.53,6.28a5.67,5.67,0,0,0,0-4.4,12.75,12.75,0,0,1-3.72,4.87A16.6,16.6,0,0,0,255,126a7.13,7.13,0,0,1-2.13,4.26s-3.23-1.59-3.72-4.36a15,15,0,0,0,.5,3.44,23.36,23.36,0,0,1-7.77-2.61c-3.32-2-5.69,4-5.69,4S230.31,119.72,239.82,116Z" style="fill:#263238"></path><path d="M253.18,138.86a5.46,5.46,0,0,0,4.53,2.49" style="fill:none;stroke:#263238;stroke-linecap:round;stroke-linejoin:round;stroke-width:0.75px"></path><path d="M238,152.16h24.37l1.25,9s.4,4-8.13,4.84S238,161.72,238,161.72Z" style="fill:#225EE8"></path><path d="M238,152.16h24.37l1.25,9s.4,4-8.13,4.84S238,161.72,238,161.72Z" style="opacity:0.2;isolation:isolate"></path><path d="M263.36,218.4l-1.22.06c-1.17-24.78-6.7-52.5-6.7-52.5v-13.8h1.34v13.89C261.19,183.29,262.83,207.82,263.36,218.4Z" style="fill:#fff;opacity:0.6000000000000001"></path><path d="M271.1,158c7.6,2.5,20.67,24,16.7,30.34s-32.36,3-32.36,3,19.26-7.22,20.17-10S271.1,158,271.1,158Z" style="fill:#225EE8"></path><path d="M287.8,188.34c-2.84,4.57-18.2,4.14-26.7,3.53h0c-3.37-.24-5.65-.51-5.65-.51s19.25-7.22,20.16-10c.31-.94-.09-3.87-.76-7.35-1.34-6.9-3.74-16-3.74-16C278.69,160.5,291.76,182,287.8,188.34Z" style="opacity:0.2;isolation:isolate"></path><path d="M261.1,191.87h0c-3.37-.24-5.65-.51-5.65-.51s19.25-7.22,20.16-10c.31-.94-.09-3.87-.76-7.35l.08-.05,3.12,5.39S281.08,189.61,261.1,191.87Z" style="opacity:0.2;isolation:isolate"></path><path d="M227.66,159.72c-6.59,2.3,3.6,32.39,14.2,37.39S278,179.31,278,179.31s-30.52,6.53-32.27,5-5.94-5.44-10.18-13.89S227.66,159.72,227.66,159.72Z" style="fill:#225EE8"></path><path d="M227.66,159.72c-6.59,2.3,3.6,32.39,14.2,37.39S278,179.31,278,179.31s-30.52,6.53-32.27,5-5.94-5.44-10.18-13.89S227.66,159.72,227.66,159.72Z" style="opacity:0.2;isolation:isolate"></path><polygon points="255.44 152.72 255.69 156.15 257.71 156.15 256.78 152.72 255.44 152.72" style="fill:#fff"></polygon><polygon points="266.27 381.81 275.6 385.57 274.35 389.94 264.43 385.87 266.27 381.81" style="fill:#225EE8"></polygon><path d="M241.86,133.29a6.86,6.86,0,0,1,1.32,1.14c.53.63,0,3,0,3s-2-.92-1.65.92S243,140.1,243,140.1s2.41,6.08,8.38,7.83a27.31,27.31,0,0,0,5.22,1" style="fill:none;stroke:#263238;stroke-linecap:round;stroke-linejoin:round;stroke-width:0.75px"></path><rect x="255.77" y="148.12" width="2.94" height="1.65" rx="0.82" style="fill:#263238"></rect><path d="M238,215.29s3.91,92.57,1.87,132.13c-1.45,28,1.35,40.19,1.35,40.19l9.1.95S264.06,367.2,266,250.73l9.57-41Z" style="fill:#fff;opacity:0.2"></path><polygon points="240.92 386.25 251.25 387.57 250.87 391.2 240.92 389.6 240.92 386.25" style="fill:#225EE8"></polygon></g></g><g id="freepik--character-3--inject-250"><g id="freepik--group--inject-250"><path d="M308.91,280.48s10.18,10.47,44.39,6.69l3.08-43.07-36.52-5.17Z" style="fill:#225EE8"></path><path d="M308.91,280.48s10.18,10.47,44.39,6.69l3.08-43.07-36.52-5.17Z" style="fill:#fff;opacity:0.30000000000000004"></path><polygon points="311.55 384.31 296.57 405.26 287.96 417.29 281.4 413.12 289.22 399.59 300.44 380.19 311.55 384.31" style="fill:#eec1bb"></polygon><polygon points="417.14 416.37 409.02 416.2 405.86 405.15 399.14 381.61 409.82 376.49 414.99 404.63 417.14 416.37" style="fill:#eec1bb"></polygon><polygon points="300.44 380.19 311.55 384.31 296.57 405.26 289.22 399.59 300.44 380.19" style="opacity:0.2;isolation:isolate"></polygon><polygon points="414.99 404.63 405.86 405.15 399.14 381.61 409.82 376.49 414.99 404.63" style="opacity:0.2;isolation:isolate"></polygon><path d="M379.73,197.61s11,16.87,14.65,19.25,19.83-12.24,19.83-12.24,2.26-4.46,4.64-4.74,12.39-1.61,13.45-.29-1.79,10-3.9,10.56-10.08.94-11.14-.51c0,0-14.84,17.94-24.88,15.58s-20.7-22.12-20.7-22.12Z" style="fill:#eec1bb"></path><path d="M416.1,398.9l-12.68,3.32s-24.59-73-28.38-81c-1.39-2.92-7-9.84-12.86-16.64-7.12-8.29-14.52-16.37-14.86-16.73v0s-.13,38.88-5.23,53.95-41.77,60.44-41.77,60.44l-9.85-6.5s29.55-50.81,32.28-63.44-8.2-69,0-103.62l34.41,3.67,2.35,17.31S391.59,299,395.89,310C400.31,321.25,416.1,398.9,416.1,398.9Z" style="fill:#225EE8"></path><path d="M377.52,189.68a53.79,53.79,0,0,0-30-12.14A14,14,0,0,0,334,184.87c-4.78,8.93-12,27.77-13.62,52.26l38.76,1.62S362.57,212.51,377.52,189.68Z" style="fill:#263238"></path><path d="M377.52,189.68c5.5,4.57,9.13,15.3,9.13,15.3l-12.08,8.66s-4.3-6.9-9.13-8.13S377.52,189.68,377.52,189.68Z" style="fill:#263238"></path><path d="M353.3,178.55c-5-.29,16.5,41.48,16.5,41.48S383.18,180.24,353.3,178.55Z" style="fill:none;stroke:#263238;stroke-linecap:round;stroke-linejoin:round;stroke-width:0.75px"></path><path d="M353.3,178.55c-5-.29,16.5,41.48,16.5,41.48S383.18,180.24,353.3,178.55Z" style="fill:none;stroke:#fff;stroke-miterlimit:10;opacity:0.30000000000000004"></path><path d="M353.3,178.55s5.61,13.7,9.91,14,5.47-3,5.47-3-2-4-.41-5.33l.16-.14c1.72-1.42,6.35-5.05,6.35-5.05l-9.48-7.44-.34.52c-1,1.47-3.91,5.58-6.14,6A26.21,26.21,0,0,1,353.3,178.55Z" style="fill:#eec1bb"></path><path d="M368.43,184.05c1.72-1.42,6.35-5.05,6.35-5.05l-9.48-7.44-.34.52C364.61,175.33,364.62,181.06,368.43,184.05Z" style="opacity:0.2;isolation:isolate"></path><path d="M389.78,157.5c2.23,5.58-.73,12.94-6,14.88-6.87,2.53-4-17.08-4-17.08S388.83,155.13,389.78,157.5Z" style="fill:#263238"></path><path d="M389.78,157.5c2.23,5.58-.73,12.94-6,14.88-6.87,2.53-4-17.08-4-17.08S388.83,155.13,389.78,157.5Z" style="fill:#fff;opacity:0.30000000000000004"></path><path d="M366.49,178.11a10.14,10.14,0,0,0,11.11,5.25,11.32,11.32,0,0,0,7-4.47,11.61,11.61,0,0,0,.65-1c3.69-6.44,6-18.2-.66-23.48a11,11,0,0,0-15.44,1.68,10.84,10.84,0,0,0-2.2,4.61C365.16,168.52,363.73,173,366.49,178.11Z" style="fill:#eec1bb"></path><path d="M377.11,165.88a1,1,0,0,0,.41,1.36c.42.12.89-.3,1.08-.93s0-1.23-.42-1.35S377.3,165.25,377.11,165.88Z" style="fill:#263238"></path><path d="M384.2,168a1,1,0,0,0,.41,1.35c.41.12.9-.3,1.08-.92s0-1.23-.41-1.35S384.38,167.37,384.2,168Z" style="fill:#263238"></path><path d="M382.78,168a23.48,23.48,0,0,0,1.43,6.24,3.78,3.78,0,0,1-3.18-.32Z" style="fill:#d4827d"></path><path d="M388.64,166.09a.41.41,0,0,1-.38-.12,3.08,3.08,0,0,0-2.55-1.09.39.39,0,0,1-.44-.32.38.38,0,0,1,.32-.43h0a3.81,3.81,0,0,1,3.24,1.32.38.38,0,0,1,0,.54h0A.56.56,0,0,1,388.64,166.09Z" style="fill:#263238"></path><path d="M377.46,163a.36.36,0,0,1-.19-.13.39.39,0,0,1,.19-.51h0a3.82,3.82,0,0,1,3.51.12.37.37,0,0,1,.11.53h0a.39.39,0,0,1-.53.11h0a3.1,3.1,0,0,0-2.77,0A.41.41,0,0,1,377.46,163Z" style="fill:#263238"></path><path d="M380,175.77a20.55,20.55,0,0,0-1.79,2.47l-.5-.21c-2.24-1-3-2.14-3.08-3.16a3.07,3.07,0,0,1,.21-1.47,2.94,2.94,0,0,1,.4-.76,11.44,11.44,0,0,0,4,2.79C379.66,175.65,380,175.77,380,175.77Z" style="fill:#263238"></path><path d="M379.2,175.43l-.54.72c-2.11-.91-3.47-1.83-3.86-2.75a2.94,2.94,0,0,1,.4-.76A11.44,11.44,0,0,0,379.2,175.43Z" style="fill:#fff"></path><path d="M377.67,178c-2.24-1-3-2.14-3.08-3.16a7.89,7.89,0,0,1,2.28,1.55A3,3,0,0,1,377.67,178Z" style="fill:#de5753"></path><path d="M389.31,159.89a13.84,13.84,0,0,1-4.61-.89c-3-1.09-5.52-3.62-8-3.91a1.64,1.64,0,0,0-1.2.35c-1.17.87-1.93,3-2.29,4.33-.17.6-.25,1-.25,1A10.17,10.17,0,0,1,368,167.7a1.58,1.58,0,0,0,0-.66,20.11,20.11,0,0,1-2.65,4.4,4.67,4.67,0,0,0-.47.94s-4.45-6.17-1.83-15.71c.71-2.58,3.15-7.33,5.48-7.74,2.55-4.49,9.53-5.59,17.23-2.18C394.72,150.74,389.31,159.89,389.31,159.89Z" style="fill:#263238"></path><path d="M388.58,159.86S394.93,154,391,149" style="fill:none;stroke:#263238;stroke-linecap:round;stroke-linejoin:round;stroke-width:0.75px"></path><path d="M372.92,160.77A10.17,10.17,0,0,1,368,167.7a1.58,1.58,0,0,0,0-.66,20.11,20.11,0,0,1-2.65,4.4,4.67,4.67,0,0,0-.47.94s-4.45-6.17-1.83-15.71c.71-2.58,3.15-7.33,5.48-7.74a9.81,9.81,0,0,1,7,6.51c-1.17.87-1.93,3-2.29,4.33C373,160.37,372.92,160.77,372.92,160.77Z" style="fill:#fff;opacity:0.30000000000000004"></path><path d="M361.74,166a7.65,7.65,0,0,0,3.12,4.93c2.2,1.54,4.18-.22,4.32-2.76.09-2.25-.9-5.84-3.48-6.33S361.35,163.57,361.74,166Z" style="fill:#eec1bb"></path><path d="M367.09,162.91a6.24,6.24,0,0,1,.89,1.5c.3.77-1,2.86-1,2.86s-1.58-1.5-1.85.35.82,2.11.82,2.11.35,6.52,5.45,10.08a26.2,26.2,0,0,0,4.62,2.62" style="fill:none;stroke:#263238;stroke-linecap:round;stroke-linejoin:round;stroke-width:0.75px"></path><path d="M377,183.64l-1.22-.41a.84.84,0,0,1-.52-1h0a.84.84,0,0,1,1-.52l1.22.41a.84.84,0,0,1,.52,1.05h0A.84.84,0,0,1,377,183.64Z" style="fill:#263238"></path><path d="M416.48,411.75H407a.67.67,0,0,0-.66.53l-1.54,6.94a1.15,1.15,0,0,0,.89,1.36,1.07,1.07,0,0,0,.25,0c3.06-.05,5.29-.24,9.14-.24,2.37,0,9.51.25,12.78.25s3.7-3.23,2.36-3.53c-6-1.31-10.52-3.12-12.45-4.85A1.88,1.88,0,0,0,416.48,411.75Z" style="fill:#263238"></path><path d="M417,412.83a.19.19,0,0,1-.14-.16.18.18,0,0,1,.09-.18c.28-.18,2.8-1.72,3.66-1.28a.58.58,0,0,1,.32.52,1.11,1.11,0,0,1-.39,1,2.35,2.35,0,0,1-1.5.4A9.38,9.38,0,0,1,417,412.83Zm.54-.26a3.74,3.74,0,0,0,2.77-.14.75.75,0,0,0,.25-.66c0-.15-.07-.22-.12-.22a.39.39,0,0,0-.24-.05A7.52,7.52,0,0,0,417.55,412.57Z" style="fill:#225EE8"></path><path d="M417,412.87a.22.22,0,0,1-.09-.17c0-.11.2-2.35,1.1-3.08a1,1,0,0,1,.79-.24.6.6,0,0,1,.59.48c.16.83-1.4,2.54-2.2,3h-.09A.17.17,0,0,1,417,412.87Zm1.25-3a4.31,4.31,0,0,0-.92,2.43c.8-.6,1.79-1.9,1.69-2.41,0,0,0-.18-.26-.18h-.09A.6.6,0,0,0,418.21,409.84Z" style="fill:#225EE8"></path><path d="M290.48,411.75H281a.67.67,0,0,0-.66.53l-1.54,6.94a1.15,1.15,0,0,0,.89,1.36,1.07,1.07,0,0,0,.25,0c3.06-.05,5.29-.24,9.14-.24,2.37,0,9.51.25,12.78.25s3.7-3.23,2.36-3.53c-6-1.31-10.52-3.12-12.45-4.85A1.88,1.88,0,0,0,290.48,411.75Z" style="fill:#263238"></path><path d="M291,412.83a.19.19,0,0,1-.14-.16.18.18,0,0,1,.09-.18c.28-.18,2.8-1.72,3.66-1.28a.58.58,0,0,1,.32.52,1.11,1.11,0,0,1-.39,1,2.35,2.35,0,0,1-1.5.4A9.38,9.38,0,0,1,291,412.83Zm.54-.26a3.74,3.74,0,0,0,2.77-.14.75.75,0,0,0,.25-.66c0-.15-.07-.22-.12-.22a.39.39,0,0,0-.24-.05A7.52,7.52,0,0,0,291.55,412.57Z" style="fill:#225EE8"></path><path d="M291,412.87a.22.22,0,0,1-.09-.17c0-.11.2-2.35,1.1-3.08a1,1,0,0,1,.79-.24.6.6,0,0,1,.59.48c.16.83-1.4,2.54-2.2,3h-.09A.17.17,0,0,1,291,412.87Zm1.25-3a4.31,4.31,0,0,0-.92,2.43c.8-.6,1.79-1.9,1.69-2.41,0,0,0-.18-.26-.18h-.09A.6.6,0,0,0,292.21,409.84Z" style="fill:#225EE8"></path><path d="M332.4,193.8s-28.55,2.3-54.63,11.53a16.71,16.71,0,0,0-3.67,1.51c-2.11,1.13-13.19-2.44-14.24-3.43s5.11-9.16,5.72-9.42,10.58,2.88,12.19,4.74c0,0,28.91-12.4,51.52-18.19Z" style="fill:#eec1bb"></path><path d="M347.51,177.54c-13.87-2.42-27.65,4.83-27.65,4.83l2.77,14s10.55-.43,16.88,2.15S347.51,177.54,347.51,177.54Z" style="fill:#263238"></path><path d="M362.18,304.58c-7.12-8.29-14.52-16.37-14.86-16.73v0L346.76,265S364.94,285.76,362.18,304.58Z" style="opacity:0.2;isolation:isolate"></path><path d="M416.48,411.75H407a.67.67,0,0,0-.66.53l-1.54,6.94a1.15,1.15,0,0,0,.89,1.36,1.07,1.07,0,0,0,.25,0c3.06-.05,5.29-.24,9.14-.24,2.37,0,9.51.25,12.78.25s3.7-3.23,2.36-3.53c-6-1.31-10.52-3.12-12.45-4.85A1.88,1.88,0,0,0,416.48,411.75Z" style="fill:#fff;opacity:0.6000000000000001"></path><path d="M290.48,411.75H281a.67.67,0,0,0-.66.53l-1.54,6.94a1.15,1.15,0,0,0,.89,1.36,1.07,1.07,0,0,0,.25,0c3.06-.05,5.29-.24,9.14-.24,2.37,0,9.51.25,12.78.25s3.7-3.23,2.36-3.53c-6-1.31-10.52-3.12-12.45-4.85A1.88,1.88,0,0,0,290.48,411.75Z" style="fill:#fff;opacity:0.6000000000000001"></path><path d="M326,334.56l-32.65,58.6,8.5,7.13-1.55,1.93-9.85-6.5s29.55-50.81,32.28-63.44c0-.17.07-.35.1-.54l1.37.18.26-24.26-2.32.06c0-.36,0-.74-.09-1.11l-1-12.51c0-.57-.08-1.15-.13-1.73l7.74-3.81,1.32-5.31-9.24,3.92,2.12-3.92s-3.43-37.36.79-49.07c1.15-3.17,2.33-4.62,3.45-5.05a2.21,2.21,0,0,1,2,.21c2.06,1.18,3.56,4.84,3.56,4.84s-3.21,12.22-8.74,14.63c0,0-.8,21.58,0,33.1l7.12-1.43,2.63,24.1-6.59,2v25.59s10.81,2.35,13.19,5C340.3,337.2,329.9,334.64,326,334.56Z" style="opacity:0.2;isolation:isolate"></path><path d="M305.75,280.48s9.5-43,14.11-46.81,31.51,4.76,31.51,4.76,7.92-6,10-4.25,0,12.56,0,12.56l3.42,11.16s-6.08-3.82-12.27-15c0,0-17.11.45-26.54,8.61-16.87,14.6-15,33.3-15,33.3S306.54,283.89,305.75,280.48Z" style="fill:#225EE8"></path><path d="M305.75,280.48s9.5-43,14.11-46.81,31.51,4.76,31.51,4.76,7.92-6,10-4.25,0,12.56,0,12.56l3.42,11.16s-6.08-3.82-12.27-15c0,0-17.11.45-26.54,8.61-16.87,14.6-15,33.3-15,33.3S306.54,283.89,305.75,280.48Z" style="fill:#fff;opacity:0.5"></path><polygon points="361.53 271.92 365.35 274.43 362.67 284.06 358.76 281.15 361.53 271.92" style="fill:#225EE8"></polygon><polygon points="361.53 271.92 365.35 274.43 362.67 284.06 358.76 281.15 361.53 271.92" style="fill:#fff;opacity:0.5"></polygon><polygon points="387.11 248.26 391.59 247.53 392.78 257.68 387.11 257.68 387.11 248.26" style="fill:#225EE8"></polygon><polygon points="387.11 248.26 391.59 247.53 392.78 257.68 387.11 257.68 387.11 248.26" style="fill:#fff;opacity:0.5"></polygon><path d="M349.66,239.61s1.85,0,2.71,2.52c0,0-2.32,19.9,10.21,29.18L359,283.13S336,267.41,349.66,239.61Z" style="fill:#225EE8"></path><path d="M355.33,237.77s1.45,2.11-1.45,4.88c0,0,13.19,14.79,34.81,16.1l-1.05-11.88S367.86,250.16,355.33,237.77Z" style="fill:#225EE8"></path><path d="M349.66,239.61s1.85,0,2.71,2.52c0,0-2.32,19.9,10.21,29.18L359,283.13S336,267.41,349.66,239.61Z" style="fill:#fff;opacity:0.30000000000000004"></path><path d="M355.33,237.77s1.45,2.11-1.45,4.88c0,0,13.19,14.79,34.81,16.1l-1.05-11.88S367.86,250.16,355.33,237.77Z" style="fill:#fff;opacity:0.30000000000000004"></path><rect x="369.03" y="219.82" width="3.12" height="4.94" rx="1.13" transform="translate(-43.67 99.26) rotate(-14.42)" style="fill:#225EE8"></rect></g></g><g id="freepik--character-2--inject-250"><g id="freepik--group--inject-250"><path d="M191,275l1.24-9.21s-1.77-1.87-1.92-2.84-.88-4.93-.28-6.21,4.42-2.31,6.21-2.65,3,9.74,2.32,10.59a8.29,8.29,0,0,1-1.64,1.53l-.79,12Z" style="fill:#e4897b"></path><path d="M209.73,271.1C201.6,288.44,198.11,293.83,197,293c-.88-.69,0-20.69,0-20.69l-6.33-2.85s-5.12,20.95-1.58,31.58c2,5.94,12.47,7.53,33.58-13.85Z" style="fill:#225EE8"></path><path d="M222.71,287.18c-9,9.11-16.05,14-21.35,16.25-7.15,3-11.09,1-12.23-2.4-3.54-10.63,1.58-31.58,1.58-31.58L197,272.3s-.9,20,0,20.69c1.09.84,4.58-4.55,12.71-21.89l6.49,8Z" style="fill:#fff;opacity:0.5"></path><polygon points="190.62 268.66 197.7 271.92 197.7 274.3 189.82 270.91 190.62 268.66" style="fill:#225EE8"></polygon><path d="M222.71,287.18c-9,9.11-16.05,14-21.35,16.25,10.79-10.18,14-20.56,14.86-24.29Z" style="opacity:0.2;isolation:isolate"></path><path d="M201.94,305.57l-12.42,1.11a20.1,20.1,0,0,1-3.27-.48c-2.83-.63-12,1.33-11.93,3.34s1.17,6.9,3,7.17,11,.15,12.47-1.87a18.18,18.18,0,0,0,1.84-2.79l10.52-.57Z" style="fill:#e4897b"></path><path d="M229.35,315.8s-23.44,96.62-14.75,102.35c15.76,10.4,85.41-10.62,85.41-10.62l-6.19-6.89c-35.43,8.45-57.79,4.56-60.91,2.33s20.61-63.09,20.61-63.09Z" style="fill:#263238"></path><path d="M229.35,315.8s-23.44,96.62-14.75,102.35c15.76,10.4,85.41-10.62,85.41-10.62l-6.19-6.89c-35.43,8.45-57.79,4.56-60.91,2.33s20.61-63.09,20.61-63.09Z" style="opacity:0.2;isolation:isolate"></path><path d="M194.74,412.78s-13.86-74.46-11.31-76.95c1.94-1.89,39,15.42,56.66,21.12,19.09,6.16,40-9.56,23.74-39.89l-34.48-1.26-5,6.6s-44.44-19.06-57.06-10.78c-17.84,11.7,19.05,101.16,19.05,101.16Z" style="fill:#263238"></path><path d="M194.74,412.78s-13.86-74.46-11.31-76.95c1.94-1.89,39,15.42,56.66,21.12,19.09,6.16,40-9.56,23.74-39.89l-34.48-1.26-5,6.6s-44.44-19.06-57.06-10.78c-17.84,11.7,19.05,101.16,19.05,101.16Z" style="opacity:0.2;isolation:isolate"></path><path d="M253.52,353.55c-5.54,7.61-10.12,18.73-12.5,25.12-1.15,3.07-1.79,5.06-1.79,5.06l-26.78.7a220.1,220.1,0,0,1,2.78-24.78,193.71,193.71,0,0,1,4.32-19.78Z" style="fill:#263238"></path><path d="M253.52,353.55c-5.54,7.61-10.12,18.73-12.5,25.12l-25.79-19a193.71,193.71,0,0,1,4.32-19.78Z" style="opacity:0.2;isolation:isolate"></path><path d="M190.93,310.68l-2,33.27s39.32,18.12,59.94,17.18,26.24-16,17.8-44.07l-37.29-1.26-2.5,3.29Z" style="fill:#263238"></path><path d="M184.59,408h8.85a.72.72,0,0,1,.7.56l2.59,11.22a1.18,1.18,0,0,1-.92,1.41,1.15,1.15,0,0,1-.26,0c-3.19-.05-5.51-.25-9.51-.25-2.47,0-9.9.26-13.31.26s-3.84-3.36-2.45-3.67c6.25-1.36,10.95-7.25,12.95-9A1.92,1.92,0,0,1,184.59,408Z" style="fill:#263238"></path><path d="M294,412.28l-4-7.89a.69.69,0,0,1,.18-.86l8.81-7.42a1.19,1.19,0,0,1,1.68.17,1.09,1.09,0,0,1,.14.23c1.41,2.86,2.29,5,4.11,8.58,1.12,2.19,4.73,8.7,6.28,11.73s-1.24,4.95-2.15,3.85c-4.06-4.94-11.44-6.45-13.95-7.42A1.94,1.94,0,0,1,294,412.28Z" style="fill:#263238"></path><path d="M207.7,244a6.84,6.84,0,0,0-1,1.42c-.36.74.71,2.94.71,2.94s1.71-1.36,1.81.51-1,2-1,2-.93,6.47-6.33,9.56a27.35,27.35,0,0,1-4.84,2.19" style="fill:none;stroke:#263238;stroke-linecap:round;stroke-linejoin:round;stroke-width:0.75px"></path><path d="M195.94,263.78l1.26-.3a.83.83,0,0,0,.61-1h0a.84.84,0,0,0-1-.61l-1.25.3a.82.82,0,0,0-.61,1h0A.81.81,0,0,0,195.94,263.78Z" style="fill:#263238"></path><path d="M227.15,316.43l43.23,11.4c-1.3-17.75-3.3-26.6-3.3-26.6l-38.92,9.95C229.92,315.32,227.15,316.43,227.15,316.43Z" style="fill:#225EE8"></path><path d="M209.73,271.1a53.92,53.92,0,0,1,29-14.4,14,14,0,0,1,14,6.28c5.45,8.55,13.77,24.93,17.21,49.23l-41.84,3.25S226.38,292.72,209.73,271.1Z" style="fill:#225EE8"></path><path d="M209.73,271.1a53.92,53.92,0,0,1,29-14.4,14,14,0,0,1,14,6.28c5.45,8.55,13.77,24.93,17.21,49.23l-41.84,3.25S226.38,292.72,209.73,271.1Z" style="fill:#fff;opacity:0.6000000000000001"></path><path d="M246.53,258.83c19.69,5.64-1.28,43.59-11.18,49.55S196,312.7,196,312.7l-1.52-8.08s30-4.56,35.87-8.45,8.17-20.32,9.79-26.71C242.3,261,246.53,258.83,246.53,258.83Z" style="fill:#225EE8"></path><path d="M246.53,258.83c19.69,5.64-1.28,43.59-11.18,49.55S196,312.7,196,312.7l-1.52-8.08s30-4.56,35.87-8.45,8.17-20.32,9.79-26.71C242.3,261,246.53,258.83,246.53,258.83Z" style="fill:#fff;opacity:0.5"></path><polygon points="193.33 304.3 195.82 303.69 197.3 313.57 194.69 313.18 193.33 304.3" style="fill:#225EE8"></polygon><path d="M218.89,264.26s-2.88,2.58-2.4,4.4,1.92,6.49,9.77,10.48,10.32-22,10.32-22S229.13,257.25,218.89,264.26Z" style="fill:#225EE8"></path><path d="M233,258.15s-4.55,14.09-8.82,14.68-5.68-2.57-5.68-2.57,1.65-4.15,0-5.34l-.17-.13c-1.82-1.29-6.71-4.55-6.71-4.55l8.88-8.14.38.49c1.08,1.39,4.32,5.27,6.58,5.56A25.94,25.94,0,0,0,233,258.15Z" style="fill:#e4897b"></path><path d="M218.37,264.79c-1.82-1.29-6.71-4.55-6.71-4.55l8.88-8.14.38.49C221.52,255.8,221.94,261.52,218.37,264.79Z" style="opacity:0.2;isolation:isolate"></path><path d="M196.22,235.27s-1.42,11.22,4.62,15.36S206.35,234,206.35,234Z" style="fill:#225EE8"></path><path d="M196.22,235.27s-1.42,11.22,4.62,15.36S206.35,234,206.35,234Z" style="fill:#fff;opacity:0.5"></path><path d="M218.28,259.07a10.15,10.15,0,0,1-11.54,4.23,11.32,11.32,0,0,1-6.58-5.09,10.6,10.6,0,0,1-.56-1.06c-3.09-6.75-4.33-18.66,2.78-23.32a11,11,0,0,1,15.22,3.06,10.72,10.72,0,0,1,1.77,4.79C220.46,249.64,221.48,254.26,218.28,259.07Z" style="fill:#e4897b"></path><path d="M208.8,245.94c.17.62-.1,1.22-.53,1.31s-.86-.38-1-1,.12-1.23.53-1.31S208.67,245.29,208.8,245.94Z" style="fill:#263238"></path><path d="M201.55,247.37c.17.62-.12,1.23-.53,1.31s-.86-.38-1-1,.11-1.23.53-1.31S201.43,246.76,201.55,247.37Z" style="fill:#263238"></path><path d="M203,247.53a23,23,0,0,1-2,6.09,3.77,3.77,0,0,0,3.2,0Z" style="fill:#de5753"></path><path d="M197.3,245.1a.43.43,0,0,0,.39-.08,3.06,3.06,0,0,1,2.64-.85.39.39,0,0,0,.46-.28.37.37,0,0,0-.28-.46h0a3.85,3.85,0,0,0-3.34,1,.38.38,0,0,0,0,.54h0Z" style="fill:#263238"></path><path d="M208.71,243.06a.37.37,0,0,0,.2-.12.39.39,0,0,0-.14-.52h0a3.8,3.8,0,0,0-3.5-.19.37.37,0,0,0-.16.51h0a.39.39,0,0,0,.52.17h0a3.08,3.08,0,0,1,2.77.19A.36.36,0,0,0,208.71,243.06Z" style="fill:#263238"></path><path d="M205.07,255.53a21.44,21.44,0,0,1,1.56,2.62l.51-.16c2.32-.76,3.15-1.87,3.36-2.88a3,3,0,0,0-.08-1.48,2.88,2.88,0,0,0-.32-.79,11.61,11.61,0,0,1-4.24,2.42C205.38,255.44,205.07,255.53,205.07,255.53Z" style="fill:#263238"></path><path d="M205.86,255.26l.48.76c2.18-.72,3.62-1.51,4.08-2.39a2.88,2.88,0,0,0-.32-.79A11.61,11.61,0,0,1,205.86,255.26Z" style="fill:#fff"></path><path d="M207.14,258c2.32-.76,3.15-1.87,3.36-2.88a7.86,7.86,0,0,0-2.41,1.35A2.92,2.92,0,0,0,207.14,258Z" style="fill:#de5753"></path><path d="M225.83,235.68c-2.23-9.64-9.34-9-9.34-9-4.44-3.09-8-2.23-13.22-.3-5.55,2.06-9.74,7.57-9.74,7.57a23.68,23.68,0,0,1,5.59-2.6,12.14,12.14,0,0,0-6.55,10.23l2.75-2-2.27,3.48c7.18-.2,14.44-5.68,14.44-5.68-1.49,2.55-5.77,4.75-5.77,4.75,4.41-.06,8.58-3.24,10.77-5.24a2.54,2.54,0,0,1,1,2.7c-.69,3.11,1.66,7.43,4.19,8.92a1.7,1.7,0,0,1,.09-.66,20,20,0,0,0,2.25,4.62,5,5,0,0,0,1,.66S228.05,245.32,225.83,235.68Z" style="fill:#225EE8"></path><path d="M225.83,235.68c-2.23-9.64-9.34-9-9.34-9-4.44-3.09-8-2.23-13.22-.3-5.55,2.06-9.74,7.57-9.74,7.57a23.68,23.68,0,0,1,5.59-2.6,12.14,12.14,0,0,0-6.55,10.23l2.75-2-2.27,3.48c7.18-.2,14.44-5.68,14.44-5.68-1.49,2.55-5.77,4.75-5.77,4.75,4.41-.06,8.58-3.24,10.77-5.24a2.54,2.54,0,0,1,1,2.7c-.69,3.11,1.66,7.43,4.19,8.92a1.7,1.7,0,0,1,.09-.66,20,20,0,0,0,2.25,4.62,5,5,0,0,0,1,.66S228.05,245.32,225.83,235.68Z" style="fill:#fff;opacity:0.30000000000000004"></path><path d="M224.09,247.46a7.64,7.64,0,0,1-3.55,4.64c-2.33,1.33-4.14-.6-4-3.14.11-2.26,1.42-5.73,4-6S224.7,245.05,224.09,247.46Z" style="fill:#e4897b"></path></g></g></svg>